<?xml version="1.0" encoding="UTF-8"?>
<!-- Generator: Adobe Illustrator 25.2.3, SVG Export Plug-In . SVG Version: 6.00 Build 0)  -->
<svg version="1.1" id="Layer_1" xmlns="http://www.w3.org/2000/svg" xmlns:xlink="http://www.w3.org/1999/xlink" x="0px" y="0px" width="60px" height="60px" viewBox="0 0 60 60" style="enable-background:new 0 0 60 60;" xml:space="preserve">
<style type="text/css">
	.st0{fill:#B24CA1;}
</style>
<g id="Layer_2_1_">
	<g id="logos">
		<path class="st0" d="M45.3,25.8c-6-2.2-3.6,1.4-3.6,1.4c-5.4-4.3-7.8,2.5-7.8,2.5c-3.4-1.6-0.6,3.8-0.6,3.8c-6.5-6.6,0,6.4,0,6.4    c-7.2-14.1-5.5-3-5.5-3c-4.8-7.5-4.9,1.1-4.9,1.1c-0.4-4.8-2.5-2.3-2.5-2.3s-5.6,0.3-4.9,3.4c1.3,6.1,5.6,5.2,5.6,5.2    c2,2.7,2.3,0.4,2.3,0.4c4.6,3.7,5.8-0.5,5.8-0.5c0.6,1,1.7,1.5,2.8,1.3c1.1-0.2,1.9-1.1,2-2.1c0.3,0.7,1.6,0.8,2.3,0.2    c0.7-0.6,0.2-2.3,0.2-2.3c1.1,1.5,1.4,1.3,3,0.4c1.6-0.9,0.3-2.8,0.3-2.8c3.5,3.1,1.3-1.7,1.3-1.7c4.7,2.9,1.6-2.3,1.6-2.3    c3.9,3.9,2.3-0.8,2.3-0.8c2.3,1.5,3-5.2,2.5-8.1S45.3,25.8,45.3,25.8z M46.9,19.8c0,0-0.4-1.8-1.7-0.3c0,0-0.4-2.1-1.5-0.6    c0,0,0.1-1-1.3,0c0,0,0.2-1.9-1.8-0.3c0,0-2.1-4.3-2-0.3c0,0-2.5-5-6.6-1.7c0,0-2.2-2.7-3.6-0.4c0,0-1.3-3.8-1,2.2    c0,0-2.7-6.8-2.8-0.2c0,0-1.1-0.6-0.6,2.6c0.1,0.1-2.5-5.2-6.8-1.7s-3.7,6.3-2.8,7.2c0,0-1.1-1.1-2,0.6c-0.7,1.2,0.9,2.5,1.8,3.1    c-1-0.6-2.5-1.2-0.3,1.4c0,0-3.2-1.7-1.3,1.2c0,0-2.2-0.9,0.2,1.3c0,0-2.8-0.3-1.1,2.8c0,0-1.8-0.9-1.6,2.8c0,0,1.2,0.6,3.5-1.9    s3.8-1.8,1.3-3.6c0,0,3.5,0.7,1.7-1.1c0,0,4.2,1.6,2.2-0.8c0,0,4.5,1.8,1.1-2.6c0,0,3.1,2.4,1-0.3c0,0,1.7,2.1,1.3,0    c0,0,1.6,2.6,1.7-1.3c0,0,2.1,2.4,2.4-0.3c1.4,0.3,2.8-0.6,3.1-1.9c0,0,3,1.5,2.6-2.4c0.5,0.7,1.3,1,2.1,0.7c0,0,0.6,0.6,1,0    c0,0,1.1,0.5,1.3,0c0,0,0.7,1.1,1.9-0.6c0,0,0.9,1.4,1.6,0c0,0,0.8,1.2,1.8-0.2c0,0,0.3,1.3,0.9,0.6c0,0,1.2,0.7,1.7-0.1    c0,0,2.5,1.5,5.9-4.5C50,19.1,47.9,18.4,46.9,19.8L46.9,19.8z"/>
	</g>
</g>
</svg>